<svg width="28" height="23" viewBox="0 0 28 23" fill="none" xmlns="http://www.w3.org/2000/svg">
<path d="M25 3.75H20.75L19.7375 0.9125C19.6675 0.718337 19.5394 0.550505 19.3704 0.43193C19.2015 0.313354 19.0001 0.249818 18.7938 0.25H9.20625C8.78438 0.25 8.40625 0.515625 8.26562 0.9125L7.25 3.75H3C1.61875 3.75 0.5 4.86875 0.5 6.24999V20.5C0.5 21.8812 1.61875 23 3 23H25C26.3813 23 27.5 21.8812 27.5 20.5V6.24999C27.5 4.86875 26.3813 3.75 25 3.75ZM25.25 20.5C25.25 20.6375 25.1375 20.75 25 20.75H3C2.8625 20.75 2.75 20.6375 2.75 20.5V6.24999C2.75 6.11249 2.8625 5.99999 3 5.99999H8.83438L9.36875 4.50625L10.0844 2.5H17.9125L18.6281 4.50625L19.1625 5.99999H25C25.1375 5.99999 25.25 6.11249 25.25 6.24999V20.5ZM14 7.99999C11.2375 7.99999 9 10.2375 9 13C9 15.7625 11.2375 18 14 18C16.7625 18 19 15.7625 19 13C19 10.2375 16.7625 7.99999 14 7.99999ZM14 16C12.3438 16 11 14.6562 11 13C11 11.3437 12.3438 9.99999 14 9.99999C15.6562 9.99999 17 11.3437 17 13C17 14.6562 15.6562 16 14 16Z" fill="white"/>
</svg>
