<?xml version="1.0" encoding="UTF-8" standalone="no"?>
<svg
   viewBox="0 0 14 14"
   xmlns="http://www.w3.org/2000/svg"
   xmlns:svg="http://www.w3.org/2000/svg">
  <path
     id="path958"
     style="fill:#ffffff"
     d="M 9.8947145,0.79685064 9.3478927,1.968885 A 5.5626082,5.5626082 0 0 1 12.561905,7.0069119 5.5626082,5.5626082 0 0 1 7,12.568817 5.5626082,5.5626082 0 0 1 1.4380947,7.0069119 5.5626082,5.5626082 0 0 1 4.6521073,1.968885 L 4.1071974,0.80067457 A 6.8516365,6.8516365 0 0 0 0.14751858,7.0069119 6.8516365,6.8516365 0 0 0 7,13.859394 6.8516365,6.8516365 0 0 0 13.852481,7.0069119 6.8516365,6.8516365 0 0 0 9.8947145,0.79685064 Z" />
</svg>
